<?xml version="1.0" standalone="no"?>
<!DOCTYPE svg PUBLIC "-//W3C//DTD SVG 20010904//EN"
 "http://www.w3.org/TR/2001/REC-SVG-20010904/DTD/svg10.dtd">
<svg version="1.0" xmlns="http://www.w3.org/2000/svg"
 width="1645.000000pt" height="748.000000pt" viewBox="0 0 1645.000000 748.000000"
 preserveAspectRatio="xMidYMid meet">
<metadata>
Created by potrace 1.15, written by Peter Selinger 2001-2017
</metadata>
<g transform="translate(0.000000,748.000000) scale(0.100000,-0.100000)"
fill="#000000" stroke="none">
<path d="M1915 7273 c-829 -72 -1546 -636 -1809 -1423 -79 -238 -106 -412
-106 -685 1 -490 125 -851 449 -1305 50 -70 75 -147 74 -230 -2 -87 -30 -159
-99 -251 -217 -289 -359 -632 -408 -987 -21 -148 -21 -436 0 -584 53 -380 213
-749 452 -1041 80 -97 269 -279 364 -350 287 -214 622 -352 976 -401 148 -21
436 -21 584 0 450 62 844 256 1172 574 249 242 422 517 530 840 85 255 111
440 103 734 -7 273 -41 452 -134 696 -68 181 -144 314 -318 563 -55 78 -78
150 -73 232 7 100 32 141 177 288 l126 128 -150 148 c-111 109 -171 160 -230
194 -145 85 -307 124 -475 114 -145 -9 -205 -29 -460 -153 -303 -147 -342
-158 -565 -158 -157 0 -177 2 -259 28 -343 105 -593 368 -678 713 -28 116 -30
302 -4 418 101 447 494 765 946 765 114 0 196 -14 313 -54 210 -72 130 1 1457
-1322 1244 -1240 1270 -1264 1482 -1392 261 -158 569 -261 877 -293 140 -14
418 -7 551 16 423 71 809 262 1107 549 201 193 325 360 443 598 329 664 280
1471 -127 2088 -332 502 -847 833 -1448 927 -169 27 -490 24 -658 -6 -377 -66
-699 -211 -986 -444 -42 -34 -182 -166 -311 -294 l-235 -233 145 -144 c80 -79
173 -162 208 -184 220 -142 507 -172 753 -79 37 14 142 64 235 111 255 131
382 164 587 153 141 -7 244 -34 372 -97 383 -187 603 -609 530 -1021 -37 -211
-125 -382 -274 -529 -120 -119 -249 -195 -417 -246 -81 -25 -104 -28 -254 -28
-142 -1 -177 2 -249 22 -103 28 -207 75 -292 132 -43 29 -450 427 -1244 1220
-804 802 -1210 1200 -1273 1249 -313 238 -663 381 -1047 426 -117 13 -323 17
-430 8z m311 -4214 c399 -55 718 -347 816 -746 32 -129 29 -312 -6 -447 -91
-349 -353 -611 -706 -703 -130 -35 -314 -36 -443 -5 -521 128 -841 627 -732
1142 105 492 579 828 1071 759z"/>
<path d="M8520 6654 c344 -344 652 -646 685 -671 70 -54 193 -114 285 -140 50
-14 100 -18 220 -17 142 0 162 2 240 28 164 55 240 105 422 284 l137 135 -187
194 c-103 107 -230 231 -282 275 -348 293 -800 483 -1254 527 -60 6 -285 11
-500 11 l-391 0 625 -626z"/>
<path d="M12755 7269 c-395 -41 -796 -209 -1110 -465 -49 -40 -913 -897 -1920
-1903 l-1830 -1831 422 0 c510 0 615 10 888 87 275 78 562 227 795 413 47 38
184 169 305 292 121 123 634 637 1140 1144 967 968 972 972 1137 1049 282 130
627 108 899 -57 76 -46 215 -181 1527 -1492 l1443 -1441 -4 475 c-3 437 -5
484 -25 585 -78 399 -206 690 -445 1010 -70 93 -1455 1487 -1620 1630 -442
382 -1021 564 -1602 504z"/>
<path d="M11750 4505 c-184 -37 -305 -110 -500 -302 l-145 -142 180 -181 c374
-376 564 -519 864 -648 538 -232 1146 -226 1688 15 263 118 436 247 763 570
l245 243 -140 138 c-83 82 -171 160 -216 189 -220 143 -504 173 -754 78 -38
-14 -133 -59 -210 -99 -77 -40 -171 -86 -210 -101 -161 -64 -353 -81 -520 -46
-113 23 -193 55 -370 147 -164 86 -252 121 -353 140 -90 17 -234 17 -322 -1z"/>
</g>
</svg>
